# This file uses centimeters as units for non-parametric coordinates.

g default
v -12.545891 22.142345 9.955524
v -10.753174 0.174364 16.645977
v 36.339455 -0.174368 2.882511
v 34.546753 21.793600 -3.807953
v -34.256638 22.142345 -8.097584
v -36.339455 0.174364 -1.491680
v 10.773167 -0.174368 12.203182
v 12.855999 21.793600 5.597282
v -22.643058 22.142345 -19.873402
v -24.142207 0.174364 -13.111111
v 23.984726 -0.174368 -3.574497
v 25.483887 21.793600 -10.336788
v -10.177689 -0.000000 5.961948
v 16.139965 -0.000000 5.961948
v 16.139965 27.213448 4.802250
v -10.177689 27.213448 4.802250
v 14.437794 31.848679 -6.280098
v -8.364460 31.848679 -6.280098
v 14.437794 31.399277 15.884617
v -8.364460 31.399277 15.884617
v 18.541321 31.623999 4.802288
v -12.467985 31.623999 4.802288
v 3.036667 31.929535 -10.268906
v 3.036667 26.725321 4.588428
v 3.036667 31.318378 19.873402
v 10.788992 33.648796 4.890690
v 3.036667 33.495987 12.426281
v 3.036667 33.801567 -2.644897
v -4.715660 33.648796 4.890690
v -2.536428 33.538948 10.307987
v 8.609758 33.538948 10.307987
v 8.609758 33.758625 -0.526566
v -2.536428 33.758625 -0.526566
vt 0.715212 0.005351
vt 0.968980 0.005351
vt 0.968980 0.546265
vt 0.715212 0.546265
vt 0.715212 0.005351
vt 0.968980 0.005351
vt 0.968980 0.546265
vt 0.715212 0.546265
vt 0.715212 0.005351
vt 0.968980 0.005351
vt 0.968980 0.546265
vt 0.715212 0.546265
vt 0.083818 0.612899
vt 0.373862 0.612899
vt 0.373862 0.913087
vt 0.083818 0.913087
vt 0.727863 0.736143
vt 0.753421 0.798352
vt 0.685044 0.866171
vt 0.638657 0.736143
vt 0.685043 0.606117
vt 0.753421 0.673935
vt 0.816730 0.647917
vt 0.816928 0.557962
vt 0.948394 0.608113
vt 0.878471 0.671698
vt 0.816730 0.824370
vt 0.816927 0.914326
vt 0.948394 0.864174
vt 0.878471 0.800590
vt 0.901737 0.736144
vt 0.817716 0.736143
vt 0.994468 0.736144
vn 0.269602 0.300622 0.914845
vn 0.269602 0.300622 0.914845
vn 0.269602 0.300622 0.914845
vn 0.269602 0.300622 0.914845
vn -0.264166 0.300622 0.916429
vn -0.264166 0.300622 0.916429
vn -0.264166 0.300622 0.916429
vn -0.264166 0.300622 0.916430
vn -0.183288 0.300622 0.935966
vn -0.183288 0.300622 0.935966
vn -0.183288 0.300622 0.935966
vn -0.183288 0.300622 0.935966
vn 0.000000 0.042576 0.999093
vn 0.000000 0.042576 0.999093
vn 0.000000 0.042576 0.999093
vn 0.000000 0.042576 0.999093
vn 0.000000 0.999957 0.009294
vn 0.044129 0.998749 -0.023504
vn -0.173501 0.965468 0.194346
vn 0.000000 0.960856 0.277049
vn 0.173501 0.965468 0.194345
vn -0.044129 0.998749 -0.023504
vn -0.006738 0.999811 0.018237
vn 0.249359 0.968221 0.019176
vn 0.171584 0.973022 -0.154231
vn -0.043963 0.996962 0.064288
vn 0.006738 0.999811 0.018237
vn -0.249359 0.968221 0.019176
vn -0.171585 0.973022 -0.154231
vn 0.043963 0.996963 0.064288
vn 0.000000 0.999488 0.032002
vn 0.000000 0.999705 0.024304
vn -0.000000 0.972021 -0.234894
s off
g foliage_flower
f 1/1/1 2/2/2 3/3/3 4/4/4
f 5/5/5 6/6/6 7/7/7 8/8/8
f 9/9/9 10/10/10 11/11/11 12/12/12
f 13/13/13 14/14/14 15/15/15 16/16/16
s 1
f 27/17/17 30/18/18 20/19/19 25/20/20
f 19/21/21 31/22/22 27/17/17 25/20/20
f 26/23/23 21/24/24 17/25/25 32/26/26
f 19/21/21 21/24/24 26/23/23 31/22/22
f 29/27/27 22/28/28 20/19/19 30/18/18
f 18/29/29 22/28/28 29/27/27 33/30/30
f 28/31/31 33/30/30 29/27/27 24/32/32
f 24/32/32 26/23/23 32/26/26 28/31/31
f 24/32/32 27/17/17 31/22/22 26/23/23
f 24/32/32 29/27/27 30/18/18 27/17/17
f 28/31/31 32/26/26 17/25/25 23/33/33
f 18/29/29 33/30/30 28/31/31 23/33/33
