# This file uses centimeters as units for non-parametric coordinates.

g default
v -30.000004 0.000000 150.000000
v 29.999996 0.000000 150.000000
v -30.000004 160.148697 150.000000
v 30.000000 160.148697 150.000000
v -30.000004 160.148697 -150.000000
v 30.000000 160.148697 -150.000000
v -30.000004 0.000000 -150.000000
v 29.999996 0.000000 -150.000000
v 29.999996 17.736568 -150.000000
v -30.000004 17.736568 -150.000000
v -30.000004 17.736568 150.000000
v 29.999996 17.736568 150.000000
v -65.353333 0.000000 -150.000000
v -65.353333 0.000000 150.000000
v -65.353333 8.635902 150.000000
v -65.353333 8.635902 -150.000000
v 65.353333 0.000000 -150.000000
v 65.353333 0.000000 150.000000
v 65.353333 8.635902 -150.000000
v 65.353333 8.635902 150.000000
v 15.240472 160.148697 -169.029663
v 15.240469 17.736568 -169.029663
v 15.240469 0.000000 -169.029663
v 15.240469 0.000000 169.029648
v 15.240469 17.736568 169.029648
v 15.240472 160.148697 169.029648
v -15.240479 160.148697 -169.029663
v -15.240482 17.736568 -169.029663
v -15.240482 0.000000 -169.029663
v -15.240482 0.000000 169.029648
v -15.240482 17.736568 169.029648
v -15.240479 160.148697 169.029648
v -15.240479 169.568741 151.984955
v -15.240479 169.568741 -151.984955
v 15.240472 169.568741 151.984955
v 15.240472 169.568741 -151.984955
v 45.961937 214.792084 -121.682022
v -45.961937 214.792084 -92.406067
v 0.000000 260.754028 -106.734512
v -45.961937 214.792084 -123.090088
v 0.000000 260.754028 -137.418518
v 45.961937 214.792084 -152.366043
v -0.000160 170.254822 -76.840668
v 0.000169 170.254822 -138.110855
v 0.000169 170.254822 -168.794876
v -0.000160 170.254822 -107.524689
v 45.961937 214.792084 -60.522655
v -45.961937 214.792084 -31.246693
v 0.000000 260.754028 -45.575130
v -45.961937 214.792084 -61.930721
v 0.000000 260.754028 -76.259155
v 45.961937 214.792084 -91.206680
v -0.000160 170.254822 -15.681284
v 0.000169 170.254822 -76.951492
v 0.000169 170.254822 -107.635513
v -0.000160 170.254822 -46.365303
v 45.961937 214.792084 0.729616
v -45.961937 214.792084 30.005571
v 0.000000 260.754028 15.677133
v -45.961937 214.792084 -0.678449
v 0.000000 260.754028 -15.006887
v 45.961937 214.792084 -29.954403
v -0.000160 170.254822 45.570980
v 0.000169 170.254822 -15.699223
v 0.000169 170.254822 -46.383244
v -0.000160 170.254822 14.886960
v 45.961937 214.792084 61.709343
v -45.961937 214.792084 90.985291
v 0.000000 260.754028 76.656860
v -45.961937 214.792084 60.301277
v 0.000000 260.754028 45.972839
v 45.961937 214.792084 31.025322
v -0.000160 170.254822 106.550705
v 0.000169 170.254822 45.280502
v 0.000169 170.254822 14.596483
v -0.000160 170.254822 75.866684
v 45.961937 214.792084 123.953522
v -45.961937 214.792084 153.229477
v 0.000000 260.754028 138.901031
v -45.961937 214.792084 122.545456
v 0.000000 260.754028 108.217010
v 45.961937 214.792084 93.269501
v -0.000160 170.254822 168.794891
v 0.000169 170.254822 107.524689
v 0.000169 170.254822 76.840660
v -0.000160 170.254822 138.110870
vt 0.171557 0.794467
vt 0.171422 0.768500
vt 0.315729 0.767364
vt 0.317880 0.790446
vt 0.506358 0.715227
vt 0.503854 0.737599
vt 0.360322 0.737032
vt 0.360678 0.711478
vt 0.072306 0.688705
vt 0.072306 0.383166
vt 0.217348 0.383166
vt 0.217348 0.688705
vt 0.146920 0.692469
vt 0.146920 0.998008
vt 0.001879 0.998008
vt 0.001879 0.692469
vt 0.340900 0.736860
vt 0.340247 0.711410
vt 0.652679 0.401927
vt 0.652679 0.705449
vt 0.644971 0.705448
vt 0.645498 0.401927
vt 0.152775 0.794266
vt 0.152912 0.768939
vt 0.554768 0.705453
vt 0.554768 0.401907
vt 0.561953 0.401907
vt 0.562479 0.705454
vt 0.609841 0.723378
vt 0.607144 0.705450
vt 0.648224 0.714759
vt 0.606618 0.401927
vt 0.609760 0.382662
vt 0.649413 0.392453
vt 0.597704 0.382662
vt 0.600832 0.401906
vt 0.558045 0.392433
vt 0.600305 0.705453
vt 0.597649 0.723314
vt 0.559246 0.714773
vt 0.503863 0.767928
vt 0.506320 0.790304
vt 0.360656 0.794047
vt 0.360350 0.768496
vt 0.340899 0.768663
vt 0.340251 0.794113
vt 0.171557 0.737380
vt 0.152889 0.736928
vt 0.152787 0.711605
vt 0.171494 0.711410
vt 0.315728 0.738510
vt 0.317893 0.715435
vt 0.658465 0.384991
vt 0.669516 0.382662
vt 0.669516 0.739246
vt 0.658465 0.736917
vt 0.705272 0.382662
vt 0.705272 0.739246
vt 0.333804 0.773175
vt 0.522231 0.733836
vt 0.716323 0.384991
vt 0.716323 0.736917
vt 0.333752 0.732693
vt 0.522292 0.771684
vt 0.155535 0.807246
vt 0.296711 0.807246
vt 0.296711 0.867424
vt 0.155535 0.867424
vt 0.296711 0.807246
vt 0.296711 0.867424
vt 0.155535 0.867424
vt 0.155535 0.807246
vt 0.296711 0.807246
vt 0.296711 0.867424
vt 0.155535 0.867424
vt 0.155535 0.807246
vt 0.155535 0.867424
vt 0.155535 0.807246
vt 0.296711 0.807246
vt 0.296711 0.867424
vt 0.155535 0.807246
vt 0.296711 0.807246
vt 0.296711 0.867424
vt 0.155535 0.867424
vt 0.296711 0.807246
vt 0.296711 0.867424
vt 0.155535 0.867424
vt 0.155535 0.807246
vt 0.296711 0.807246
vt 0.296711 0.867424
vt 0.155535 0.867424
vt 0.155535 0.807246
vt 0.155535 0.867424
vt 0.155535 0.807246
vt 0.296711 0.807246
vt 0.296711 0.867424
vt 0.155535 0.807246
vt 0.296711 0.807246
vt 0.296711 0.867424
vt 0.155535 0.867424
vt 0.296711 0.807246
vt 0.296711 0.867424
vt 0.155535 0.867424
vt 0.155535 0.807246
vt 0.296711 0.807246
vt 0.296711 0.867424
vt 0.155535 0.867424
vt 0.155535 0.807246
vt 0.155535 0.867424
vt 0.155535 0.807246
vt 0.296711 0.807246
vt 0.296711 0.867424
vt 0.155535 0.807246
vt 0.296711 0.807246
vt 0.296711 0.867424
vt 0.155535 0.867424
vt 0.296711 0.807246
vt 0.296711 0.867424
vt 0.155535 0.867424
vt 0.155535 0.807246
vt 0.296711 0.807246
vt 0.296711 0.867424
vt 0.155535 0.867424
vt 0.155535 0.807246
vt 0.155535 0.867424
vt 0.155535 0.807246
vt 0.296711 0.807246
vt 0.296711 0.867424
vt 0.155535 0.807246
vt 0.296711 0.807246
vt 0.296711 0.867424
vt 0.155535 0.867424
vt 0.296711 0.807246
vt 0.296711 0.867424
vt 0.155535 0.867424
vt 0.155535 0.807246
vt 0.296711 0.807246
vt 0.296711 0.867424
vt 0.155535 0.867424
vt 0.155535 0.807246
vt 0.155535 0.867424
vt 0.155535 0.807246
vt 0.296711 0.807246
vt 0.296711 0.867424
vn -0.975415 0.213298 0.055408
vn -0.387729 0.000000 0.921774
vn -0.376065 0.079709 0.923159
vn -0.994083 0.099366 0.043889
vn -0.994083 0.099366 -0.043889
vn -0.376065 0.079709 -0.923158
vn -0.387729 0.000000 -0.921774
vn -0.975415 0.213298 -0.055408
vn 0.975415 0.213298 0.055408
vn 0.975415 0.213298 -0.055408
vn 0.994083 0.099366 -0.043889
vn 0.994083 0.099366 0.043889
vn -0.387729 0.000000 -0.921774
vn -0.420639 0.000000 -0.907228
vn -0.984194 0.000000 -0.177094
vn -0.984194 0.000000 0.177094
vn -0.447960 0.892893 0.045541
vn -0.447960 0.892893 -0.045541
vn -0.420639 0.000000 0.907228
vn -0.387729 0.000000 0.921774
vn 0.984194 0.000000 0.177094
vn 0.984194 0.000000 -0.177094
vn 0.447959 0.892893 -0.045541
vn 0.447959 0.892893 0.045541
vn 0.420639 0.000000 -0.907228
vn 0.420638 0.000000 0.907228
vn 0.376065 0.079709 -0.923158
vn 0.387729 -0.000000 -0.921774
vn 0.387729 0.000000 -0.921774
vn 0.387729 -0.000000 0.921774
vn 0.387729 0.000000 0.921774
vn 0.376065 0.079709 0.923159
vn 0.190260 0.981430 -0.024443
vn 0.190260 0.981430 0.024443
vn -0.190260 0.981430 -0.024443
vn -0.190260 0.981430 0.024443
vn -0.707107 0.707107 0.000000
vn -0.707107 0.707107 0.000000
vn -0.707107 0.707107 0.000000
vn -0.707107 0.707107 0.000000
vn 0.695890 -0.718148 0.000000
vn 0.695890 -0.718148 0.000000
vn 0.695890 -0.718148 0.000000
vn 0.695890 -0.718148 0.000000
vn 0.707107 0.707107 0.000000
vn 0.707107 0.707107 0.000000
vn 0.707107 0.707107 0.000000
vn 0.707107 0.707107 0.000000
vn -0.695890 -0.718148 0.000000
vn -0.695890 -0.718148 0.000000
vn -0.695890 -0.718148 0.000000
vn -0.695890 -0.718148 0.000000
vn -0.707107 0.707107 0.000000
vn -0.707107 0.707107 0.000000
vn -0.707107 0.707107 0.000000
vn -0.707107 0.707107 0.000000
vn 0.695890 -0.718148 0.000000
vn 0.695890 -0.718148 0.000000
vn 0.695890 -0.718148 0.000000
vn 0.695890 -0.718148 0.000000
vn 0.707107 0.707107 0.000000
vn 0.707107 0.707107 0.000000
vn 0.707107 0.707107 0.000000
vn 0.707107 0.707107 0.000000
vn -0.695890 -0.718148 0.000000
vn -0.695890 -0.718148 0.000000
vn -0.695890 -0.718148 0.000000
vn -0.695890 -0.718148 0.000000
vn -0.707107 0.707107 0.000000
vn -0.707107 0.707107 0.000000
vn -0.707107 0.707107 0.000000
vn -0.707107 0.707107 0.000000
vn 0.695890 -0.718148 0.000000
vn 0.695890 -0.718148 0.000000
vn 0.695890 -0.718148 0.000000
vn 0.695890 -0.718148 0.000000
vn 0.707107 0.707107 0.000000
vn 0.707107 0.707107 0.000000
vn 0.707107 0.707107 0.000000
vn 0.707107 0.707107 0.000000
vn -0.695890 -0.718148 0.000000
vn -0.695890 -0.718148 0.000000
vn -0.695890 -0.718148 0.000000
vn -0.695890 -0.718148 0.000000
vn -0.707107 0.707107 0.000000
vn -0.707107 0.707107 0.000000
vn -0.707107 0.707107 0.000000
vn -0.707107 0.707107 0.000000
vn 0.695890 -0.718148 0.000000
vn 0.695890 -0.718148 0.000000
vn 0.695890 -0.718148 0.000000
vn 0.695890 -0.718148 0.000000
vn 0.707107 0.707107 0.000000
vn 0.707107 0.707107 0.000000
vn 0.707107 0.707107 0.000000
vn 0.707107 0.707107 0.000000
vn -0.695890 -0.718148 0.000000
vn -0.695890 -0.718148 0.000000
vn -0.695890 -0.718148 0.000000
vn -0.695890 -0.718148 0.000000
vn -0.707107 0.707107 0.000000
vn -0.707107 0.707107 0.000000
vn -0.707107 0.707107 0.000000
vn -0.707107 0.707107 0.000000
vn 0.695890 -0.718148 0.000000
vn 0.695890 -0.718148 0.000000
vn 0.695890 -0.718148 0.000000
vn 0.695890 -0.718148 0.000000
vn 0.707107 0.707107 0.000000
vn 0.707107 0.707107 0.000000
vn 0.707107 0.707107 0.000000
vn 0.707107 0.707107 0.000000
vn -0.695890 -0.718148 0.000000
vn -0.695890 -0.718148 0.000000
vn -0.695890 -0.718148 0.000000
vn -0.695890 -0.718148 0.000000
s 1
g polySurface12
f 11/1/1 31/2/2 32/3/3 3/4/4
f 5/5/5 27/6/6 28/7/7 10/8/8
f 12/9/9 9/10/10 6/11/11 4/12/12
f 10/13/8 11/14/1 3/15/4 5/16/5
f 10/8/8 28/7/7 29/17/13 7/18/14
f 13/19/15 14/20/16 15/21/17 16/22/18
f 1/23/19 30/24/20 31/2/2 11/1/1
f 18/25/21 17/26/22 19/27/23 20/28/24
f 1/29/19 11/30/1 15/21/17 14/31/16
f 11/30/1 10/32/8 16/22/18 15/21/17
f 10/32/8 7/33/14 13/34/15 16/22/18
f 8/35/25 9/36/10 19/27/23 17/37/22
f 9/36/10 12/38/9 20/28/24 19/27/23
f 12/38/9 2/39/26 18/40/21 20/28/24
f 21/41/27 6/42/11 9/43/10 22/44/28
f 23/45/29 22/44/28 9/43/10 8/46/25
f 25/47/30 24/48/31 2/49/26 12/50/9
f 26/51/32 25/47/30 12/50/9 4/52/12
f 6/53/11 36/54/33 35/55/34 4/56/12
f 27/6/6 21/41/27 22/44/28 28/7/7
f 29/17/13 28/7/7 22/44/28 23/45/29
f 31/2/2 30/24/20 24/48/31 25/47/30
f 32/3/3 31/2/2 25/47/30 26/51/32
f 34/57/35 33/58/36 35/55/34 36/54/33
f 3/4/4 32/3/3 33/59/36
f 27/6/6 5/5/5 34/60/35
f 5/61/5 3/62/4 33/58/36 34/57/35
f 26/51/32 4/52/12 35/63/34
f 6/42/11 21/41/27 36/64/33
f 32/3/3 26/51/32 35/63/34 33/59/36
f 21/41/27 27/6/6 34/60/35 36/64/33
s off
f 38/65/37 39/66/38 41/67/39 40/68/40
f 44/69/41 45/70/42 42/71/43 37/72/44
f 37/73/45 42/74/46 41/75/47 39/76/48
f 46/77/49 43/78/50 38/79/51 40/80/52
f 48/81/53 49/82/54 51/83/55 50/84/56
f 54/85/57 55/86/58 52/87/59 47/88/60
f 47/89/61 52/90/62 51/91/63 49/92/64
f 56/93/65 53/94/66 48/95/67 50/96/68
f 58/97/69 59/98/70 61/99/71 60/100/72
f 64/101/73 65/102/74 62/103/75 57/104/76
f 57/105/77 62/106/78 61/107/79 59/108/80
f 66/109/81 63/110/82 58/111/83 60/112/84
f 68/113/85 69/114/86 71/115/87 70/116/88
f 74/117/89 75/118/90 72/119/91 67/120/92
f 67/121/93 72/122/94 71/123/95 69/124/96
f 76/125/97 73/126/98 68/127/99 70/128/100
f 78/129/101 79/130/102 81/131/103 80/132/104
f 84/133/105 85/134/106 82/135/107 77/136/108
f 77/137/109 82/138/110 81/139/111 79/140/112
f 86/141/113 83/142/114 78/143/115 80/144/116
